<svg version="1.1" xmlns="http://www.w3.org/2000/svg" xmlns:xlink="http://www.w3.org/1999/xlink" viewBox="0 0 226 226"><g fill="#815558" stroke="none" stroke-width="1" stroke-linecap="butt" stroke-linejoin="miter" stroke-miterlimit="10" stroke-dasharray="" stroke-dashoffset="0" font-family="none" font-weight="none" font-size="none" text-anchor="none" style="mix-blend-mode: normal"><path d="M0,226v-226h226v226z" fill="none"></path><g fill="#815558"><path d="M113.11035,0c-62.3082,0 -113,50.6918 -113,113c0,62.3082 50.6918,113 113,113c62.3082,0 113,-50.6918 113,-113c0,-62.3082 -50.6918,-113 -113,-113zM116.87702,18.83333c10.78397,0.00377 21.33522,1.88116 31.35456,5.58379c1.95113,0.71943 2.94853,2.88586 2.2291,4.84076c-0.56123,1.52173 -1.99821,2.46452 -3.53125,2.46452c-0.43317,0 -0.87634,-0.07722 -1.3095,-0.23542c-9.18313,-3.39 -18.85164,-5.10542 -28.7429,-5.11296c-2.0792,-0.00377 -3.76667,-1.69482 -3.76667,-3.77402c0,-2.0792 1.68747,-3.76667 3.76667,-3.76667zM173.11953,41.44805c0.96144,-0.06592 1.95137,0.23236 2.73672,0.91224c20.2722,17.64307 31.4283,41.39514 31.42077,66.8804c0,2.07543 -1.68747,3.75931 -3.76667,3.75931c-2.0792,0 -3.76667,-1.68747 -3.76667,-3.76667c0.00753,-23.2667 -10.23497,-44.99713 -28.83854,-61.18626c-1.5707,-1.3673 -1.73137,-3.74824 -0.36784,-5.31894c0.68365,-0.78535 1.62078,-1.21416 2.58223,-1.28008zM86.74369,45.2c10.56173,0 18.83333,13.23607 18.83333,30.13333c0,14.8256 -6.36943,26.83261 -15.06667,29.55215v12.57272c4.37687,1.5594 7.53333,5.70426 7.53333,10.60846v45.2c0,6.23007 -5.06993,11.3 -11.3,11.3c-6.23007,0 -11.3,-5.06993 -11.3,-11.3v-45.2c0,-4.9042 3.15647,-9.04906 7.53333,-10.60846v-12.57272c-8.69723,-2.71953 -15.06667,-14.72655 -15.06667,-29.55215c0,-16.89727 8.2716,-30.13333 18.83333,-30.13333zM124.41035,45.2c2.0792,0 3.76667,1.68747 3.76667,3.76667v26.36667h7.53333v-26.36667c0,-2.0792 1.68747,-3.76667 3.76667,-3.76667c2.0792,0 3.76667,1.68747 3.76667,3.76667v26.36667h7.53333v-26.36667c0,-2.0792 1.68747,-3.76667 3.76667,-3.76667c2.0792,0 3.76667,1.68747 3.76667,3.76667v30.13333v15.05931c0,6.23383 -5.06617,11.30736 -11.3,11.30736h-3.76667v11.99154c4.37687,1.5594 7.53333,5.70426 7.53333,10.60846v45.2c0,6.23007 -5.06993,11.3 -11.3,11.3c-6.23007,0 -11.3,-5.06993 -11.3,-11.3v-45.2c0,-4.9042 3.15647,-9.04906 7.53333,-10.60846v-11.99154h-3.75931c-6.23383,0 -11.30736,-5.07352 -11.30736,-11.30736v-15.05931v-30.13333c0,-2.0792 1.68747,-3.76667 3.76667,-3.76667zM86.74369,52.73333c-6.24082,0 -11.3,10.11836 -11.3,22.6c0,12.48164 5.05918,22.6 11.3,22.6c6.24082,0 11.3,-10.11836 11.3,-22.6c0,-12.48164 -5.05918,-22.6 -11.3,-22.6zM128.17702,82.86667v11.29264c0,2.0792 1.69482,3.77402 3.77402,3.77402h15.05931c2.0792,0 3.76667,-1.69482 3.76667,-3.77402v-11.29264zM22.71035,113c2.0792,0 3.76667,1.68747 3.76667,3.76667c-0.00753,24.23097 9.94994,45.37109 28.78704,61.14212c1.5933,1.33717 1.80423,3.71452 0.47083,5.31159c-0.7458,0.88893 -1.81394,1.34629 -2.89121,1.34629c-0.85503,0 -1.70865,-0.28786 -2.41302,-0.87546c-20.60743,-17.24757 -31.49451,-40.39214 -31.48698,-66.92454c0,-2.0792 1.68747,-3.76667 3.76667,-3.76667zM86.74369,124.3c-2.07543,0 -3.76667,1.69123 -3.76667,3.76667v45.2c0,2.07543 1.69123,3.76667 3.76667,3.76667c2.0792,0 3.76667,-1.69123 3.76667,-3.76667v-45.2c0,-2.07543 -1.68747,-3.76667 -3.76667,-3.76667zM139.47702,124.3c-2.07543,0 -3.76667,1.69123 -3.76667,3.76667v45.2c0,2.07543 1.69123,3.76667 3.76667,3.76667c2.0792,0 3.76667,-1.69123 3.76667,-3.76667v-45.2c0,-2.07543 -1.68747,-3.76667 -3.76667,-3.76667zM80.71113,194.88086c0.4879,-0.03225 0.9881,0.03367 1.47871,0.20599c8.70854,3.02087 17.83923,4.55384 27.13913,4.55384c2.0227,-0.06027 3.78138,1.67993 3.78138,3.76667c0.00377,2.0792 -1.76998,3.78568 -3.78138,3.75931c-10.13987,0 -20.10035,-1.66999 -29.60365,-4.96582c-1.96243,-0.68177 -3.00651,-2.82306 -2.32474,-4.78926c0.51132,-1.47182 1.84685,-2.43397 3.31055,-2.53073z"></path></g></g></svg>