<?xml version="1.0" standalone="no"?>
<svg xmlns:xlink="http://www.w3.org/1999/xlink" id="wave" style="transform:rotate(180deg);" viewBox="0 0 1440 140" version="1.1" xmlns="http://www.w3.org/2000/svg"><defs><linearGradient id="sw-gradient-0" x1="0" x2="0" y1="1" y2="0"><stop stop-color="rgba(255, 239, 227, 1)" offset="0%"/><stop stop-color="rgba(255, 239, 227, 1)" offset="100%"/></linearGradient></defs><path style="transform:translate(0, 0px); opacity:1" fill="url(#sw-gradient-0)" d="M0,56L60,46.7C120,37,240,19,360,11.7C480,5,600,9,720,30.3C840,51,960,89,1080,93.3C1200,98,1320,70,1440,53.7C1560,37,1680,33,1800,37.3C1920,42,2040,56,2160,53.7C2280,51,2400,33,2520,32.7C2640,33,2760,51,2880,58.3C3000,65,3120,61,3240,63C3360,65,3480,75,3600,72.3C3720,70,3840,56,3960,51.3C4080,47,4200,51,4320,46.7C4440,42,4560,28,4680,25.7C4800,23,4920,33,5040,44.3C5160,56,5280,70,5400,70C5520,70,5640,56,5760,58.3C5880,61,6000,79,6120,88.7C6240,98,6360,98,6480,91C6600,84,6720,70,6840,65.3C6960,61,7080,65,7200,70C7320,75,7440,79,7560,77C7680,75,7800,65,7920,60.7C8040,56,8160,56,8280,51.3C8400,47,8520,37,8580,32.7L8640,28L8640,140L8580,140C8520,140,8400,140,8280,140C8160,140,8040,140,7920,140C7800,140,7680,140,7560,140C7440,140,7320,140,7200,140C7080,140,6960,140,6840,140C6720,140,6600,140,6480,140C6360,140,6240,140,6120,140C6000,140,5880,140,5760,140C5640,140,5520,140,5400,140C5280,140,5160,140,5040,140C4920,140,4800,140,4680,140C4560,140,4440,140,4320,140C4200,140,4080,140,3960,140C3840,140,3720,140,3600,140C3480,140,3360,140,3240,140C3120,140,3000,140,2880,140C2760,140,2640,140,2520,140C2400,140,2280,140,2160,140C2040,140,1920,140,1800,140C1680,140,1560,140,1440,140C1320,140,1200,140,1080,140C960,140,840,140,720,140C600,140,480,140,360,140C240,140,120,140,60,140L0,140Z"/></svg>